<svg width="512" height="512" viewBox="0 0 512 512" fill="none" xmlns="http://www.w3.org/2000/svg">
<path d="M512 256C512 397.385 397.385 512 256 512C114.615 512 0 397.385 0 256C0 114.615 114.615 0 256 0C397.385 0 512 114.615 512 256Z" fill="white"/>
<path fill-rule="evenodd" clip-rule="evenodd" d="M388.629 185.571C385.783 185.757 383.202 186.962 381.416 188.94C379.66 190.884 378.805 193.429 379.016 196.066L388.261 270.748C388.489 272.135 388.632 273.534 388.687 274.939C389.058 284.426 385.38 293.386 378.463 299.849L356.73 320.156C351.928 324.642 343.849 324.366 338.683 319.54C333.518 314.714 333.223 307.165 338.024 302.678L359.758 282.371C362.064 280.217 363.289 277.23 363.166 274.068C363.163 273.988 363.159 273.909 363.154 273.829C363.137 273.718 363.121 273.606 363.107 273.494L362.965 272.343C362.472 269.804 361.125 267.403 359.099 265.51C356.618 263.192 353.324 261.825 349.939 261.71C346.555 261.594 343.358 262.74 341.053 264.894L317.062 287.31C312.46 291.621 310.015 297.592 310.267 303.913L313.642 390.251C313.899 396.836 308.395 401.979 301.347 401.739C294.3 401.498 288.378 395.965 288.121 389.38L284.746 303.057C284.243 290.412 289.135 278.465 298.346 269.843L322.347 247.416C329.264 240.954 338.854 237.517 349.007 237.864C352.356 237.978 355.675 238.501 358.887 239.4L353.625 196.889C353.611 196.778 353.599 196.668 353.589 196.557C352.763 187.767 355.56 179.262 361.405 172.79C367.249 166.319 375.697 162.374 385.01 161.766C394.323 161.159 403.793 163.936 411.471 169.525C419.13 175.1 424.426 183.051 426.275 191.749L445.303 277.71C446.971 285.224 446.726 292.882 444.583 300.029C442.438 307.179 438.459 313.623 432.973 318.826L432.913 318.883L388.315 360.553C387.167 361.624 386.268 362.919 385.682 364.352C385.096 365.784 384.829 367.331 384.895 368.905L384.897 368.94L385.826 392.715C386.083 399.3 380.579 404.443 373.532 404.202C366.484 403.962 360.563 398.429 360.305 391.844L359.377 368.105L359.376 368.087C359.18 363.373 359.982 358.737 361.737 354.445C363.495 350.148 366.173 346.282 369.617 343.069L414.174 301.437L414.147 301.463L423.56 310.144L414.207 301.406L414.174 301.437C416.903 298.84 418.883 295.627 419.952 292.064C421.024 288.489 421.147 284.663 420.312 280.905L401.241 194.753C400.68 192.087 399.061 189.65 396.714 187.942C394.368 186.234 391.475 185.386 388.629 185.571Z" fill="#FF5151"/>
<path fill-rule="evenodd" clip-rule="evenodd" d="M125.135 188.972C127.981 189.158 130.562 190.364 132.348 192.341C134.104 194.285 134.96 196.83 134.748 199.467L125.503 274.149C125.275 275.536 125.132 276.936 125.078 278.341C124.707 287.827 128.384 296.787 135.301 303.25L157.035 323.557C161.836 328.043 169.915 327.768 175.081 322.941C180.246 318.115 180.541 310.566 175.74 306.08L154.006 285.773C151.701 283.618 150.475 280.632 150.598 277.47C150.602 277.39 150.606 277.31 150.61 277.23C150.627 277.119 150.643 277.007 150.657 276.895L150.799 275.744C151.292 273.205 152.64 270.804 154.666 268.911C157.146 266.594 160.441 265.227 163.825 265.111C167.209 264.996 170.406 266.141 172.712 268.295L196.702 290.711C201.305 295.022 203.749 300.994 203.498 307.314L200.122 393.653C199.865 400.238 205.369 405.381 212.417 405.14C219.464 404.9 225.386 399.367 225.643 392.782L229.018 306.458C229.521 293.813 224.629 281.866 215.418 273.244L191.417 250.818C184.5 244.355 174.91 240.919 164.757 241.265C161.409 241.38 158.089 241.902 154.877 242.801L160.139 200.291C160.153 200.18 160.165 200.069 160.176 199.958C161.002 191.168 158.204 182.663 152.36 176.192C146.515 169.72 138.067 165.775 128.754 165.168C119.441 164.56 109.971 167.337 102.293 172.926C94.634 178.502 89.3386 186.453 87.4895 195.15L68.4613 281.112C66.7929 288.626 67.0383 296.283 69.1816 303.43C71.3258 310.58 75.3056 317.024 80.791 322.227L80.8513 322.285L125.449 363.954C126.597 365.025 127.497 366.321 128.082 367.753C128.668 369.185 128.936 370.733 128.869 372.306L128.868 372.342L127.938 396.116C127.681 402.701 133.185 407.844 140.233 407.604C147.28 407.363 153.202 401.83 153.459 395.245L154.387 371.506L154.388 371.488C154.585 366.774 153.782 362.138 152.027 357.846C150.27 353.55 147.592 349.683 144.147 346.471L99.59 304.838L99.6174 304.864L90.2042 313.546L99.5568 304.807L99.59 304.838C96.8614 302.241 94.8812 299.029 93.8127 295.465C92.7406 291.89 92.6171 288.065 93.4526 284.306L112.523 198.154C113.084 195.488 114.704 193.051 117.05 191.343C119.396 189.635 122.29 188.787 125.135 188.972Z" fill="#2955F1"/>
<path fill-rule="evenodd" clip-rule="evenodd" d="M189.15 108.424C198.108 99.3907 210.259 94.3158 222.929 94.3158C230.132 94.3158 236.695 95.3546 243.116 98.1743C247.62 100.152 251.827 102.907 256 106.464C260.174 102.907 264.381 100.152 268.885 98.1743C275.306 95.3546 281.868 94.3158 289.072 94.3158C301.742 94.3158 313.892 99.3907 322.851 108.424C331.81 117.457 336.842 129.709 336.842 142.484C336.842 162.803 323.545 177.708 312.616 188.509L261.197 240.356C258.327 243.25 253.674 243.25 250.804 240.356L199.402 188.526C188.346 177.744 175.158 162.859 175.158 142.484C175.158 129.709 180.191 117.457 189.15 108.424ZM222.929 109.137C214.157 109.137 205.745 112.65 199.543 118.904C193.341 125.158 189.857 133.64 189.857 142.484C189.857 156.17 198.681 167.209 209.663 177.914L209.752 178.002L256 224.636L302.301 177.949C313.268 167.113 322.144 156.09 322.144 142.484C322.144 133.64 318.659 125.158 312.457 118.904C306.255 112.65 297.843 109.137 289.072 109.137C283.341 109.137 278.88 109.951 274.754 111.763C270.581 113.595 266.29 116.652 261.197 121.787C258.327 124.681 253.674 124.681 250.804 121.787C245.71 116.652 241.42 113.595 237.246 111.763C233.121 109.951 228.66 109.137 222.929 109.137Z" fill="black"/>
<path d="M199.543 118.904C205.745 112.65 214.157 109.137 222.929 109.137C228.66 109.137 233.121 109.951 237.246 111.763C241.42 113.595 245.71 116.652 250.804 121.787C253.674 124.681 258.327 124.681 261.197 121.787C266.29 116.652 270.581 113.595 274.754 111.763C278.88 109.951 283.341 109.137 289.072 109.137C297.843 109.137 306.255 112.65 312.457 118.904C318.659 125.158 322.144 133.64 322.144 142.484C322.144 156.09 313.268 167.113 302.301 177.949L256 224.636L209.752 178.002L209.663 177.914C198.681 167.209 189.857 156.17 189.857 142.484C189.857 133.64 193.341 125.158 199.543 118.904Z" fill="black"/>
</svg>
