<svg width="318" height="318" viewBox="0 0 318 318" fill="none" xmlns="http://www.w3.org/2000/svg">
<path fill-rule="evenodd" clip-rule="evenodd" d="M56.0252 194.741L61.8717 189.349L61.8547 189.333L61.8341 189.314L56.0252 194.741ZM257.241 187.22L257.224 187.237L263.071 192.629L257.262 187.201L257.241 187.22Z" fill="#FF5151"/>
<path d="M77.7207 117.37C79.4881 117.485 81.0913 118.234 82.2006 119.462C83.2911 120.669 83.8226 122.25 83.6912 123.888L77.9494 170.272C77.8078 171.134 77.719 172.003 77.6849 172.876C77.4545 178.768 79.7386 184.333 84.0347 188.347L97.5333 200.959C100.515 203.746 105.533 203.574 108.742 200.577C111.95 197.579 112.133 192.891 109.151 190.104L95.6524 177.492C94.2204 176.154 93.459 174.299 93.5358 172.335C93.5367 172.312 93.5377 172.289 93.5388 172.267C93.5401 172.24 93.5415 172.213 93.5432 172.186C93.5538 172.117 93.5634 172.048 93.572 171.978L93.6605 171.263C93.9667 169.686 94.8034 168.195 96.0618 167.019C97.6024 165.58 99.6488 164.731 101.751 164.659C103.853 164.587 105.838 165.298 107.27 166.637L122.17 180.559C125.029 183.236 126.547 186.945 126.391 190.871L124.295 244.495C124.135 248.585 127.554 251.779 131.931 251.63C136.308 251.481 139.986 248.044 140.146 243.954L142.242 190.339C142.554 182.486 139.516 175.066 133.795 169.71L118.888 155.781C114.592 151.767 108.636 149.633 102.33 149.848C100.25 149.919 98.1883 150.244 96.1933 150.802L99.4616 124.399C99.4701 124.33 99.4777 124.262 99.4841 124.193C99.9971 118.734 98.2598 113.451 94.6296 109.432C90.9994 105.412 85.7525 102.962 79.9682 102.585C74.184 102.207 68.3024 103.932 63.5335 107.403C58.7766 110.866 55.4877 115.804 54.3392 121.207L42.5209 174.597C41.4846 179.264 41.6371 184.019 42.9683 188.459C44.3 192.9 46.7718 196.902 50.1788 200.133L50.2163 200.169L77.9155 226.05C78.6286 226.715 79.1874 227.519 79.5512 228.409C79.9151 229.299 80.0811 230.26 80.0398 231.237L80.0389 231.259L79.4616 246.025C79.3018 250.115 82.7205 253.31 87.0976 253.16C91.4747 253.011 95.1527 249.574 95.3126 245.484L95.8889 230.74L95.8894 230.729C96.0116 227.801 95.5133 224.922 94.4231 222.256C93.3316 219.587 91.6682 217.186 89.5289 215.191L61.8717 189.349L56.0252 194.741L61.8341 189.314L61.8547 189.333C60.16 187.72 58.9301 185.725 58.2665 183.512C57.6006 181.291 57.5239 178.915 58.0428 176.581L69.8873 123.072C70.2358 121.417 71.2418 119.903 72.699 118.842C74.1561 117.781 75.9533 117.254 77.7207 117.37Z" fill="#2955F1"/>
<path d="M236.895 117.349C238.004 116.121 239.608 115.372 241.375 115.257C243.142 115.142 244.94 115.669 246.397 116.729C247.854 117.79 248.86 119.304 249.208 120.96L261.053 174.468C261.572 176.803 261.495 179.179 260.829 181.399C260.166 183.612 258.936 185.607 257.241 187.22L257.262 187.201L263.071 192.629L257.224 187.237L229.567 213.078C227.428 215.074 225.764 217.475 224.673 220.144C223.582 222.809 223.084 225.689 223.206 228.617L223.207 228.628L223.783 243.372C223.943 247.462 227.621 250.898 231.998 251.048C236.375 251.197 239.794 248.003 239.634 243.913L239.057 229.146L239.056 229.124C239.015 228.147 239.181 227.186 239.545 226.296C239.908 225.407 240.467 224.602 241.18 223.937L268.88 198.056L268.917 198.021C272.324 194.789 274.796 190.787 276.128 186.346C277.459 181.907 277.611 177.151 276.575 172.484L264.757 119.094C263.608 113.692 260.319 108.754 255.562 105.291C250.793 101.819 244.912 100.095 239.128 100.472C233.343 100.849 228.096 103.3 224.466 107.319C220.836 111.338 219.099 116.621 219.612 122.08C219.618 122.149 219.626 122.218 219.634 122.287L222.902 148.69C220.907 148.131 218.846 147.807 216.766 147.736C210.46 147.521 204.504 149.655 200.208 153.669L185.301 167.598C179.58 172.953 176.542 180.373 176.854 188.227L178.95 241.842C179.11 245.932 182.788 249.368 187.165 249.517C191.542 249.667 194.961 246.473 194.801 242.383L192.705 188.758C192.549 184.833 194.067 181.124 196.925 178.446L211.826 164.524C213.258 163.186 215.243 162.475 217.345 162.546C219.447 162.618 221.493 163.467 223.034 164.907C224.292 166.082 225.129 167.573 225.435 169.15L225.524 169.865C225.532 169.935 225.542 170.004 225.553 170.074C225.554 170.103 225.556 170.133 225.557 170.163L225.56 170.222C225.637 172.186 224.875 174.041 223.443 175.379L209.945 187.992C206.963 190.778 207.146 195.467 210.354 198.464C213.562 201.462 218.58 201.633 221.562 198.847L235.061 186.234C239.357 182.22 241.641 176.655 241.411 170.763C241.377 169.891 241.288 169.021 241.146 168.16L235.405 121.775C235.273 120.137 235.805 118.557 236.895 117.349Z" fill="#FF5151"/>
<path fill-rule="evenodd" clip-rule="evenodd" d="M138.459 55.5791C129.786 55.5791 121.474 59.0532 115.349 65.2291C109.225 71.4042 105.789 79.774 105.789 88.4962C105.789 102.486 114.846 112.503 121.734 119.223L153.642 151.396C156.598 154.377 161.401 154.377 164.357 151.396L196.282 119.205C203.069 112.496 212.21 102.459 212.21 88.4962C212.21 79.774 208.774 71.4042 202.65 65.2291C196.525 59.0532 188.213 55.5791 179.54 55.5791C174.763 55.5791 170.255 56.2707 165.796 58.2288C163.405 59.279 161.165 60.6334 159 62.2743C156.834 60.6334 154.595 59.279 152.203 58.2288C147.745 56.2707 143.236 55.5791 138.459 55.5791ZM126.065 75.9632C129.356 72.6443 133.815 70.7844 138.459 70.7844C141.715 70.7844 144.054 71.2433 146.145 72.1619C148.287 73.1024 150.648 74.7357 153.642 77.7541C153.695 77.808 153.749 77.861 153.804 77.913L159 83L164.195 77.9131C164.25 77.861 164.304 77.808 164.357 77.7541C167.351 74.7357 169.713 73.1024 171.854 72.1619C173.946 71.2433 176.284 70.7844 179.54 70.7844C184.184 70.7844 188.643 72.6443 191.935 75.9632C195.227 79.283 197.081 83.7907 197.081 88.4962C197.081 95.5926 192.465 101.654 185.648 108.389L185.627 108.411L159 135.26L132.405 108.444L132.387 108.426L132.332 108.371L132.314 108.353C125.512 101.723 120.918 95.646 120.918 88.4962C120.918 83.7907 122.772 79.283 126.065 75.9632Z" fill="black"/>
</svg>
