<?xml version="1.0" standalone="no"?>
<!DOCTYPE svg PUBLIC "-//W3C//DTD SVG 20010904//EN"
 "http://www.w3.org/TR/2001/REC-SVG-20010904/DTD/svg10.dtd">
<svg version="1.0" xmlns="http://www.w3.org/2000/svg"
 width="700.000000pt" height="700.000000pt" viewBox="0 0 700.000000 700.000000"
 preserveAspectRatio="xMidYMid meet">
<metadata>
Created by potrace 1.14, written by Peter Selinger 2001-2017
</metadata>
<g transform="translate(0.000000,700.000000) scale(0.100000,-0.100000)"
fill="#000000" stroke="none">
<path d="M2896 5694 c-346 -84 -566 -444 -484 -794 17 -74 85 -209 145 -289
31 -42 246 -267 479 -501 421 -423 423 -425 464 -425 41 0 43 2 464 425 232
234 443 453 469 487 114 151 169 294 170 448 1 157 -41 284 -136 412 -207 279
-630 337 -919 126 l-48 -35 -47 35 c-119 86 -250 127 -402 126 -53 0 -123 -7
-155 -15z"/>
<path d="M5191 4775 c-143 -32 -248 -110 -306 -229 -62 -124 -62 -141 0 -622
13 -104 22 -190 20 -192 -1 -2 -38 2 -82 8 -98 13 -213 -5 -298 -46 -67 -33
-187 -137 -390 -338 -153 -152 -189 -205 -220 -326 -22 -82 -21 -137 5 -825
24 -617 24 -611 98 -660 73 -48 158 -46 217 6 19 17 38 45 43 62 5 20 -1 272
-16 647 -26 672 -26 684 27 758 34 46 362 357 406 383 19 12 49 19 84 19 96 0
172 -63 186 -155 10 -63 -23 -107 -203 -276 -90 -84 -168 -163 -173 -176 -38
-100 33 -212 146 -229 75 -11 104 7 283 173 191 177 218 208 257 294 46 104
45 137 -31 747 -66 535 -68 552 -51 587 47 99 197 102 270 4 27 -38 288 -1209
289 -1301 2 -124 -7 -135 -395 -497 -458 -428 -442 -400 -434 -752 6 -245 9
-259 64 -311 36 -34 73 -48 129 -48 51 0 88 16 124 55 l25 27 0 226 c0 184 3
231 15 249 8 13 164 163 347 333 183 171 347 331 364 356 77 113 116 248 107
378 -3 39 -67 350 -142 691 -157 708 -162 724 -269 829 -133 130 -327 189
-496 151z"/>
<path d="M1590 4725 c-98 -27 -179 -74 -250 -144 -112 -111 -113 -112 -271
-828 -77 -345 -142 -659 -145 -698 -11 -138 50 -316 143 -416 26 -29 181 -177
343 -329 162 -153 306 -290 320 -305 l25 -27 0 -226 c0 -207 2 -230 19 -255
63 -93 227 -85 294 15 25 38 26 48 35 246 11 233 5 288 -44 383 -36 73 -68
106 -432 444 -235 219 -303 288 -324 328 -49 98 -49 100 101 775 75 337 142
625 150 640 19 36 44 58 89 77 48 20 72 19 122 -5 48 -23 75 -64 75 -115 0
-20 -30 -274 -66 -563 -45 -363 -64 -545 -60 -584 7 -74 36 -154 74 -211 34
-49 358 -354 400 -376 35 -19 120 -18 158 2 47 24 91 80 99 126 13 75 -4 99
-183 267 -92 85 -175 170 -184 187 -76 137 105 299 249 223 12 -6 107 -91 211
-188 201 -188 230 -225 240 -315 3 -25 -6 -323 -19 -662 l-23 -617 22 -36 c24
-39 91 -78 133 -78 42 0 97 20 129 47 63 53 60 30 88 728 23 595 24 645 9 717
-22 108 -68 197 -148 281 -113 122 -376 360 -440 399 -96 59 -254 84 -364 58
-22 -5 -41 -7 -44 -5 -2 2 13 138 34 302 24 189 35 320 32 358 -13 164 -123
304 -286 366 -74 28 -232 35 -311 14z"/>
</g>
</svg>
